# xmcd
#
# Track frame offsets: 
#        150
#        20514
#        45414
#        60676
#        77946
#        92430
#        117216
#        140252
#        155124
#        174252
#        185769
#        210958
#
# Disc length: 2950 seconds
#
# Revision: 1
# Processed by: cddbd v1.5.2PL0 Copyright (c) Steve Scherf et al.
# Submitted via: ExactAudioCopy v0.95b4
#
DISCID=970b840c
DTITLE=Helldorado - Director's Cut
DYEAR=2004
DGENRE=Blues
TTITLE0=Blood Shack
TTITLE1=Lucy and Mary
TTITLE2=Payrolled
TTITLE3=Diesel and Bones
TTITLE4=The Snake Girl Song
TTITLE5=Dead River
TTITLE6=I'd Waited For This Day
TTITLE7=Killer On The Highway
TTITLE8=Teenage Queen
TTITLE9=Women Shouldn't Drink
TTITLE10=Roadhouse
TTITLE11=(Surfin' Transylvania)
EXTD=YEAR: 2004
EXTT0=
EXTT1=
EXTT2=
EXTT3=
EXTT4=
EXTT5=
EXTT6=
EXTT7=
EXTT8=
EXTT9=
EXTT10=
EXTT11=
PLAYORDER=
